<svg width="165" height="165" viewBox="0 0 165 165" fill="none" xmlns="http://www.w3.org/2000/svg">
<path d="M53.3958 82.5L66.9167 68.9792C68.75 67.1458 69.6667 65.0069 69.6667 62.5625C69.6667 60.1181 68.75 57.9792 66.9167 56.1458C65.0833 54.3125 62.9078 53.3958 60.39 53.3958C57.8661 53.3958 55.6875 54.3125 53.8542 56.1458L33.9167 76.0833C33 77 32.3522 77.9931 31.9733 79.0625C31.5883 80.132 31.3958 81.2778 31.3958 82.5C31.3958 83.7222 31.5883 84.8681 31.9733 85.9375C32.3522 87.007 33 88 33.9167 88.9167L53.8542 108.854C55.6875 110.688 57.8661 111.604 60.39 111.604C62.9078 111.604 65.0833 110.688 66.9167 108.854C68.75 107.021 69.6667 104.882 69.6667 102.438C69.6667 99.9931 68.75 97.8542 66.9167 96.0208L53.3958 82.5ZM111.604 82.5L98.0833 96.0208C96.25 97.8542 95.3333 99.9931 95.3333 102.438C95.3333 104.882 96.25 107.021 98.0833 108.854C99.9167 110.688 102.095 111.604 104.619 111.604C107.137 111.604 109.312 110.688 111.146 108.854L131.083 88.9167C132 88 132.648 87.007 133.027 85.9375C133.412 84.8681 133.604 83.7222 133.604 82.5C133.604 81.2778 133.412 80.132 133.027 79.0625C132.648 77.9931 132 77 131.083 76.0833L111.146 56.1458C110.229 55.2292 109.199 54.5417 108.057 54.0833C106.908 53.625 105.762 53.3958 104.619 53.3958C103.47 53.3958 102.324 53.625 101.182 54.0833C100.033 54.5417 99 55.2292 98.0833 56.1458C96.25 57.9792 95.3333 60.1181 95.3333 62.5625C95.3333 65.0069 96.25 67.1458 98.0833 68.9792L111.604 82.5ZM18.3333 165C13.2917 165 8.97417 163.206 5.38083 159.619C1.79361 156.026 0 151.708 0 146.667V18.3333C0 13.2917 1.79361 8.97417 5.38083 5.38083C8.97417 1.79361 13.2917 0 18.3333 0H146.667C151.708 0 156.026 1.79361 159.619 5.38083C163.206 8.97417 165 13.2917 165 18.3333V146.667C165 151.708 163.206 156.026 159.619 159.619C156.026 163.206 151.708 165 146.667 165H18.3333Z" fill="white"/>
</svg>
