<svg width="168" height="168" viewBox="0 0 168 168" fill="none" xmlns="http://www.w3.org/2000/svg">
<path d="M28 112H140V35H28V112ZM91 126V140H119V154H49V140H77V126H20.944C20.0248 125.995 19.1158 125.808 18.2689 125.45C17.422 125.093 16.6541 124.572 16.009 123.917C15.3639 123.262 14.8544 122.486 14.5096 121.634C14.1649 120.782 13.9917 119.87 14 118.951V28.049C14 24.157 17.185 21 20.944 21H147.056C150.892 21 154 24.143 154 28.049V118.951C154 122.843 150.815 126 147.056 126H91Z" fill="white"/>
</svg>
