<svg width="68" height="61" viewBox="0 0 68 61" fill="none" xmlns="http://www.w3.org/2000/svg">
<path d="M14.1404 28.6502L41.017 55.3924L39.6216 57.7721C39.0487 58.7487 38.2286 59.5589 37.2431 60.1219C36.2575 60.685 35.1409 60.9813 34.0044 60.9813C32.868 60.9813 31.7514 60.685 30.7658 60.1219C29.7803 59.5589 28.9602 58.7487 28.3873 57.7721L0.89283 10.7064C0.318953 9.72335 0.0154617 8.60724 0.0129043 7.4704C0.0103468 6.33355 0.308811 5.2161 0.878259 4.23051C1.44771 3.24493 2.26804 2.42598 3.25669 1.85612C4.24534 1.28626 5.36742 0.985594 6.50998 0.984375H16.2099L36.609 21.2815L17.0968 20.9873L14.1404 28.6502Z" fill="#117EFF"/>
<path d="M67.1072 10.722L45.5787 47.5774L28.0355 30.1219L47.5477 30.4602L50.5041 22.7679L28.6268 1H61.4841C62.6272 1.00019 63.75 1.30011 64.7395 1.86955C65.7289 2.43899 66.5501 3.25783 67.1203 4.24359C67.6904 5.22935 67.9894 6.34721 67.9871 7.48455C67.9848 8.62189 67.6813 9.73854 67.1072 10.722Z" fill="#117EFF"/>
</svg>
