<svg width="52" height="52" viewBox="0 0 52 52" fill="none" xmlns="http://www.w3.org/2000/svg">
<path d="M21.9042 17.3226C22.5096 16.8426 23.2296 16.4933 24.0002 16.272V23.7253C23.2395 23.517 22.5273 23.1609 21.9042 22.6773C20.8536 21.8426 20.4482 20.8613 20.4482 20C20.4482 19.1386 20.8536 18.1573 21.9042 17.3226ZM28.0002 35.7653V28.2346C28.9256 28.4613 29.7709 28.8426 30.4562 29.3573C31.5949 30.2106 32.0002 31.1866 32.0002 32C32.0002 32.8133 31.5949 33.7893 30.4562 34.6426C29.7212 35.1774 28.8859 35.5583 28.0002 35.7626V35.7653Z" fill="white"/>
<path fill-rule="evenodd" clip-rule="evenodd" d="M26 0C11.64 0 0 11.64 0 26C0 40.36 11.64 52 26 52C40.36 52 52 40.36 52 26C52 11.64 40.36 0 26 0ZM28 10C28 9.46957 27.7893 8.96086 27.4142 8.58579C27.0391 8.21071 26.5304 8 26 8C25.4696 8 24.9609 8.21071 24.5858 8.58579C24.2107 8.96086 24 9.46957 24 10V12.176C22.3276 12.4574 20.7515 13.1502 19.4133 14.192C17.5147 15.7013 16.448 17.792 16.448 20C16.448 22.2107 17.5147 24.2987 19.416 25.808C20.7547 26.8747 22.3547 27.5333 24 27.824V35.7653C23.1142 35.56 22.2789 35.1782 21.544 34.6427L19.2 32.8827C18.9899 32.7251 18.7508 32.6104 18.4964 32.5452C18.2419 32.4801 17.9772 32.4656 17.7172 32.5028C17.1921 32.5778 16.7183 32.8583 16.4 33.2827C16.0817 33.707 15.9451 34.2404 16.0201 34.7655C16.0951 35.2906 16.3757 35.7644 16.8 36.0827L19.144 37.8427C20.5653 38.9093 22.2613 39.5627 24 39.8427V42C24 42.5304 24.2107 43.0391 24.5858 43.4142C24.9609 43.7893 25.4696 44 26 44C26.5304 44 27.0391 43.7893 27.4142 43.4142C27.7893 43.0391 28 42.5304 28 42V39.84C29.7562 39.5761 31.4223 38.8908 32.856 37.8427C34.8427 36.352 36 34.2587 36 32C36 29.7413 34.8427 27.648 32.856 26.1573C31.4227 25.1081 29.7565 24.4218 28 24.1573V16.2773C28.7733 16.496 29.4907 16.8453 30.096 17.3253L31.2027 18.2053C31.6182 18.5353 32.1477 18.6866 32.6748 18.6261C33.2019 18.5656 33.6834 18.2982 34.0133 17.8827C34.3433 17.4672 34.4946 16.9376 34.4341 16.4105C34.3736 15.8834 34.1062 15.4019 33.6907 15.072L32.584 14.192C31.2464 13.1515 29.6712 12.4597 28 12.1787V10V10Z" fill="white"/>
</svg>
