<svg width="216" height="204" viewBox="0 0 216 204" fill="none" xmlns="http://www.w3.org/2000/svg">
<path d="M19.0227 49.0227C15.1136 49.0076 11.75 48.0455 8.93182 46.1364C6.12879 44.2273 3.9697 41.4621 2.45455 37.8409C0.954545 34.2197 0.212121 29.8636 0.227273 24.7727C0.227273 19.697 0.977273 15.3712 2.47727 11.7955C3.99242 8.21969 6.15152 5.5 8.95455 3.63636C11.7727 1.75757 15.1288 0.81818 19.0227 0.81818C22.9167 0.81818 26.2652 1.75757 29.0682 3.63636C31.8864 5.51515 34.053 8.24242 35.5682 11.8182C37.0833 15.3788 37.8333 19.697 37.8182 24.7727C37.8182 29.8788 37.0606 34.2424 35.5455 37.8636C34.0455 41.4848 31.8939 44.25 29.0909 46.1591C26.2879 48.0682 22.9318 49.0227 19.0227 49.0227ZM19.0227 40.8636C21.6894 40.8636 23.8182 39.5227 25.4091 36.8409C27 34.1591 27.7879 30.1364 27.7727 24.7727C27.7727 21.2424 27.4091 18.303 26.6818 15.9545C25.9697 13.6061 24.9545 11.8409 23.6364 10.6591C22.3333 9.47727 20.7955 8.88636 19.0227 8.88636C16.3712 8.88636 14.25 10.2121 12.6591 12.8636C11.0682 15.5152 10.2652 19.4848 10.25 24.7727C10.25 28.3485 10.6061 31.3333 11.3182 33.7273C12.0455 36.1061 13.0682 37.8939 14.3864 39.0909C15.7045 40.2727 17.25 40.8636 19.0227 40.8636ZM65.0852 1.45454V48H55.2443V10.7955H54.9716L44.3125 17.4773V8.75L55.8352 1.45454H65.0852ZM94.3977 49.0227C90.4886 49.0076 87.125 48.0455 84.3068 46.1364C81.5038 44.2273 79.3447 41.4621 77.8295 37.8409C76.3295 34.2197 75.5871 29.8636 75.6023 24.7727C75.6023 19.697 76.3523 15.3712 77.8523 11.7955C79.3674 8.21969 81.5265 5.5 84.3295 3.63636C87.1477 1.75757 90.5038 0.81818 94.3977 0.81818C98.2917 0.81818 101.64 1.75757 104.443 3.63636C107.261 5.51515 109.428 8.24242 110.943 11.8182C112.458 15.3788 113.208 19.697 113.193 24.7727C113.193 29.8788 112.436 34.2424 110.92 37.8636C109.42 41.4848 107.269 44.25 104.466 46.1591C101.663 48.0682 98.3068 49.0227 94.3977 49.0227ZM94.3977 40.8636C97.0644 40.8636 99.1932 39.5227 100.784 36.8409C102.375 34.1591 103.163 30.1364 103.148 24.7727C103.148 21.2424 102.784 18.303 102.057 15.9545C101.345 13.6061 100.33 11.8409 99.0114 10.6591C97.7083 9.47727 96.1705 8.88636 94.3977 8.88636C91.7462 8.88636 89.625 10.2121 88.0341 12.8636C86.4432 15.5152 85.6402 19.4848 85.625 24.7727C85.625 28.3485 85.9811 31.3333 86.6932 33.7273C87.4205 36.1061 88.4432 37.8939 89.7614 39.0909C91.0795 40.2727 92.625 40.8636 94.3977 40.8636ZM140.46 1.45454V48H130.619V10.7955H130.347L119.688 17.4773V8.75L131.21 1.45454H140.46ZM169.773 49.0227C165.864 49.0076 162.5 48.0455 159.682 46.1364C156.879 44.2273 154.72 41.4621 153.205 37.8409C151.705 34.2197 150.962 29.8636 150.977 24.7727C150.977 19.697 151.727 15.3712 153.227 11.7955C154.742 8.21969 156.902 5.5 159.705 3.63636C162.523 1.75757 165.879 0.81818 169.773 0.81818C173.667 0.81818 177.015 1.75757 179.818 3.63636C182.636 5.51515 184.803 8.24242 186.318 11.8182C187.833 15.3788 188.583 19.697 188.568 24.7727C188.568 29.8788 187.811 34.2424 186.295 37.8636C184.795 41.4848 182.644 44.25 179.841 46.1591C177.038 48.0682 173.682 49.0227 169.773 49.0227ZM169.773 40.8636C172.439 40.8636 174.568 39.5227 176.159 36.8409C177.75 34.1591 178.538 30.1364 178.523 24.7727C178.523 21.2424 178.159 18.303 177.432 15.9545C176.72 13.6061 175.705 11.8409 174.386 10.6591C173.083 9.47727 171.545 8.88636 169.773 8.88636C167.121 8.88636 165 10.2121 163.409 12.8636C161.818 15.5152 161.015 19.4848 161 24.7727C161 28.3485 161.356 31.3333 162.068 33.7273C162.795 36.1061 163.818 37.8939 165.136 39.0909C166.455 40.2727 168 40.8636 169.773 40.8636ZM215.835 1.45454V48H205.994V10.7955H205.722L195.062 17.4773V8.75L206.585 1.45454H215.835ZM19.0227 126.023C15.1136 126.008 11.75 125.045 8.93182 123.136C6.12879 121.227 3.9697 118.462 2.45455 114.841C0.954545 111.22 0.212121 106.864 0.227273 101.773C0.227273 96.697 0.977273 92.3712 2.47727 88.7955C3.99242 85.2197 6.15152 82.5 8.95455 80.6364C11.7727 78.7576 15.1288 77.8182 19.0227 77.8182C22.9167 77.8182 26.2652 78.7576 29.0682 80.6364C31.8864 82.5152 34.053 85.2424 35.5682 88.8182C37.0833 92.3788 37.8333 96.697 37.8182 101.773C37.8182 106.879 37.0606 111.242 35.5455 114.864C34.0455 118.485 31.8939 121.25 29.0909 123.159C26.2879 125.068 22.9318 126.023 19.0227 126.023ZM19.0227 117.864C21.6894 117.864 23.8182 116.523 25.4091 113.841C27 111.159 27.7879 107.136 27.7727 101.773C27.7727 98.2424 27.4091 95.303 26.6818 92.9545C25.9697 90.6061 24.9545 88.8409 23.6364 87.6591C22.3333 86.4773 20.7955 85.8864 19.0227 85.8864C16.3712 85.8864 14.25 87.2121 12.6591 89.8636C11.0682 92.5152 10.2652 96.4848 10.25 101.773C10.25 105.348 10.6061 108.333 11.3182 110.727C12.0455 113.106 13.0682 114.894 14.3864 116.091C15.7045 117.273 17.25 117.864 19.0227 117.864ZM65.0852 78.4545V125H55.2443V87.7955H54.9716L44.3125 94.4773V85.75L55.8352 78.4545H65.0852ZM94.3977 126.023C90.4886 126.008 87.125 125.045 84.3068 123.136C81.5038 121.227 79.3447 118.462 77.8295 114.841C76.3295 111.22 75.5871 106.864 75.6023 101.773C75.6023 96.697 76.3523 92.3712 77.8523 88.7955C79.3674 85.2197 81.5265 82.5 84.3295 80.6364C87.1477 78.7576 90.5038 77.8182 94.3977 77.8182C98.2917 77.8182 101.64 78.7576 104.443 80.6364C107.261 82.5152 109.428 85.2424 110.943 88.8182C112.458 92.3788 113.208 96.697 113.193 101.773C113.193 106.879 112.436 111.242 110.92 114.864C109.42 118.485 107.269 121.25 104.466 123.159C101.663 125.068 98.3068 126.023 94.3977 126.023ZM94.3977 117.864C97.0644 117.864 99.1932 116.523 100.784 113.841C102.375 111.159 103.163 107.136 103.148 101.773C103.148 98.2424 102.784 95.303 102.057 92.9545C101.345 90.6061 100.33 88.8409 99.0114 87.6591C97.7083 86.4773 96.1705 85.8864 94.3977 85.8864C91.7462 85.8864 89.625 87.2121 88.0341 89.8636C86.4432 92.5152 85.6402 96.4848 85.625 101.773C85.625 105.348 85.9811 108.333 86.6932 110.727C87.4205 113.106 88.4432 114.894 89.7614 116.091C91.0795 117.273 92.625 117.864 94.3977 117.864ZM140.46 78.4545V125H130.619V87.7955H130.347L119.688 94.4773V85.75L131.21 78.4545H140.46ZM169.773 126.023C165.864 126.008 162.5 125.045 159.682 123.136C156.879 121.227 154.72 118.462 153.205 114.841C151.705 111.22 150.962 106.864 150.977 101.773C150.977 96.697 151.727 92.3712 153.227 88.7955C154.742 85.2197 156.902 82.5 159.705 80.6364C162.523 78.7576 165.879 77.8182 169.773 77.8182C173.667 77.8182 177.015 78.7576 179.818 80.6364C182.636 82.5152 184.803 85.2424 186.318 88.8182C187.833 92.3788 188.583 96.697 188.568 101.773C188.568 106.879 187.811 111.242 186.295 114.864C184.795 118.485 182.644 121.25 179.841 123.159C177.038 125.068 173.682 126.023 169.773 126.023ZM169.773 117.864C172.439 117.864 174.568 116.523 176.159 113.841C177.75 111.159 178.538 107.136 178.523 101.773C178.523 98.2424 178.159 95.303 177.432 92.9545C176.72 90.6061 175.705 88.8409 174.386 87.6591C173.083 86.4773 171.545 85.8864 169.773 85.8864C167.121 85.8864 165 87.2121 163.409 89.8636C161.818 92.5152 161.015 96.4848 161 101.773C161 105.348 161.356 108.333 162.068 110.727C162.795 113.106 163.818 114.894 165.136 116.091C166.455 117.273 168 117.864 169.773 117.864ZM215.835 78.4545V125H205.994V87.7955H205.722L195.062 94.4773V85.75L206.585 78.4545H215.835ZM19.0227 203.023C15.1136 203.008 11.75 202.045 8.93182 200.136C6.12879 198.227 3.9697 195.462 2.45455 191.841C0.954545 188.22 0.212121 183.864 0.227273 178.773C0.227273 173.697 0.977273 169.371 2.47727 165.795C3.99242 162.22 6.15152 159.5 8.95455 157.636C11.7727 155.758 15.1288 154.818 19.0227 154.818C22.9167 154.818 26.2652 155.758 29.0682 157.636C31.8864 159.515 34.053 162.242 35.5682 165.818C37.0833 169.379 37.8333 173.697 37.8182 178.773C37.8182 183.879 37.0606 188.242 35.5455 191.864C34.0455 195.485 31.8939 198.25 29.0909 200.159C26.2879 202.068 22.9318 203.023 19.0227 203.023ZM19.0227 194.864C21.6894 194.864 23.8182 193.523 25.4091 190.841C27 188.159 27.7879 184.136 27.7727 178.773C27.7727 175.242 27.4091 172.303 26.6818 169.955C25.9697 167.606 24.9545 165.841 23.6364 164.659C22.3333 163.477 20.7955 162.886 19.0227 162.886C16.3712 162.886 14.25 164.212 12.6591 166.864C11.0682 169.515 10.2652 173.485 10.25 178.773C10.25 182.348 10.6061 185.333 11.3182 187.727C12.0455 190.106 13.0682 191.894 14.3864 193.091C15.7045 194.273 17.25 194.864 19.0227 194.864ZM65.0852 155.455V202H55.2443V164.795H54.9716L44.3125 171.477V162.75L55.8352 155.455H65.0852ZM94.3977 203.023C90.4886 203.008 87.125 202.045 84.3068 200.136C81.5038 198.227 79.3447 195.462 77.8295 191.841C76.3295 188.22 75.5871 183.864 75.6023 178.773C75.6023 173.697 76.3523 169.371 77.8523 165.795C79.3674 162.22 81.5265 159.5 84.3295 157.636C87.1477 155.758 90.5038 154.818 94.3977 154.818C98.2917 154.818 101.64 155.758 104.443 157.636C107.261 159.515 109.428 162.242 110.943 165.818C112.458 169.379 113.208 173.697 113.193 178.773C113.193 183.879 112.436 188.242 110.92 191.864C109.42 195.485 107.269 198.25 104.466 200.159C101.663 202.068 98.3068 203.023 94.3977 203.023ZM94.3977 194.864C97.0644 194.864 99.1932 193.523 100.784 190.841C102.375 188.159 103.163 184.136 103.148 178.773C103.148 175.242 102.784 172.303 102.057 169.955C101.345 167.606 100.33 165.841 99.0114 164.659C97.7083 163.477 96.1705 162.886 94.3977 162.886C91.7462 162.886 89.625 164.212 88.0341 166.864C86.4432 169.515 85.6402 173.485 85.625 178.773C85.625 182.348 85.9811 185.333 86.6932 187.727C87.4205 190.106 88.4432 191.894 89.7614 193.091C91.0795 194.273 92.625 194.864 94.3977 194.864ZM140.46 155.455V202H130.619V164.795H130.347L119.688 171.477V162.75L131.21 155.455H140.46ZM169.773 203.023C165.864 203.008 162.5 202.045 159.682 200.136C156.879 198.227 154.72 195.462 153.205 191.841C151.705 188.22 150.962 183.864 150.977 178.773C150.977 173.697 151.727 169.371 153.227 165.795C154.742 162.22 156.902 159.5 159.705 157.636C162.523 155.758 165.879 154.818 169.773 154.818C173.667 154.818 177.015 155.758 179.818 157.636C182.636 159.515 184.803 162.242 186.318 165.818C187.833 169.379 188.583 173.697 188.568 178.773C188.568 183.879 187.811 188.242 186.295 191.864C184.795 195.485 182.644 198.25 179.841 200.159C177.038 202.068 173.682 203.023 169.773 203.023ZM169.773 194.864C172.439 194.864 174.568 193.523 176.159 190.841C177.75 188.159 178.538 184.136 178.523 178.773C178.523 175.242 178.159 172.303 177.432 169.955C176.72 167.606 175.705 165.841 174.386 164.659C173.083 163.477 171.545 162.886 169.773 162.886C167.121 162.886 165 164.212 163.409 166.864C161.818 169.515 161.015 173.485 161 178.773C161 182.348 161.356 185.333 162.068 187.727C162.795 190.106 163.818 191.894 165.136 193.091C166.455 194.273 168 194.864 169.773 194.864ZM215.835 155.455V202H205.994V164.795H205.722L195.062 171.477V162.75L206.585 155.455H215.835Z" fill="white"/>
</svg>
