<svg width="155" height="155" viewBox="0 0 155 155" fill="none" xmlns="http://www.w3.org/2000/svg">
<path d="M85.25 71.8425V0L131.75 85.25L100.75 131.75H54.25L23.25 85.25L69.75 0V71.8425C66.7951 73.5485 64.4856 76.1819 63.1799 79.3343C61.8741 82.4866 61.645 85.9818 62.5282 89.2776C63.4113 92.5734 65.3572 95.4857 68.0642 97.5629C70.7712 99.64 74.0879 100.766 77.5 100.766C80.9121 100.766 84.2288 99.64 86.9358 97.5629C89.6428 95.4857 91.5887 92.5734 92.4718 89.2776C93.355 85.9818 93.1259 82.4866 91.8201 79.3343C90.5144 76.1819 88.2049 73.5485 85.25 71.8425ZM46.5 139.5H108.5V155H46.5V139.5Z" fill="white"/>
</svg>
