<svg width="49" height="46" viewBox="0 0 49 46" fill="none" xmlns="http://www.w3.org/2000/svg">
<path d="M46.5485 16.6559L32.4154 14.6019L26.0976 1.79358C25.925 1.44289 25.6411 1.159 25.2904 0.986446C24.4109 0.552267 23.3422 0.914083 22.9024 1.79358L16.5846 14.6019L2.45147 16.6559C2.06182 16.7115 1.70557 16.8952 1.43281 17.1736C1.10307 17.5125 0.921364 17.9684 0.927626 18.4413C0.933889 18.9141 1.12761 19.3651 1.46621 19.6951L11.6917 29.6646L9.27588 43.742C9.21923 44.0695 9.25547 44.4063 9.38048 44.7142C9.5055 45.0221 9.7143 45.2889 9.98319 45.4842C10.2521 45.6795 10.5703 45.7955 10.9018 45.8191C11.2333 45.8428 11.5648 45.7731 11.8587 45.6179L24.5 38.9716L37.1413 45.6179C37.4864 45.8016 37.8872 45.8628 38.2713 45.796C39.2398 45.629 39.8911 44.7106 39.7241 43.742L37.3083 29.6646L47.5338 19.6951C47.8121 19.4224 47.9958 19.0661 48.0515 18.6765C48.2018 17.7024 47.5227 16.8006 46.5485 16.6559Z" fill="white"/>
</svg>
