<svg width="624" height="523" viewBox="0 0 624 523" fill="none" xmlns="http://www.w3.org/2000/svg">
<rect width="333.737" height="333.737" rx="50" fill="#117EFF"/>
<g clip-path="url(#clip0_15_32)">
<path d="M112.978 161.619L185.862 234.732L182.078 241.238C180.525 243.908 178.301 246.123 175.628 247.662C172.956 249.202 169.927 250.012 166.846 250.012C163.764 250.012 160.736 249.202 158.063 247.662C155.39 246.123 153.167 243.908 151.613 241.238L77.0528 112.56C75.4965 109.872 74.6735 106.821 74.6665 103.713C74.6596 100.605 75.469 97.5495 77.0132 94.8549C78.5575 92.1603 80.7821 89.9213 83.4631 88.3633C86.1442 86.8053 89.1871 85.9833 92.2855 85.98H118.59L173.909 141.472L120.995 140.668L112.978 161.619Z" fill="white"/>
<path d="M256.614 112.603L198.233 213.366L150.659 165.642L203.572 166.567L211.59 145.536L152.262 86.0227H241.366C244.465 86.0232 247.51 86.8432 250.193 88.4001C252.877 89.9569 255.104 92.1956 256.65 94.8907C258.196 97.5858 259.007 100.642 259 103.752C258.994 106.861 258.171 109.914 256.614 112.603Z" fill="white"/>
</g>
<g filter="url(#filter0_d_15_32)">
<rect x="285.091" y="167.434" width="274.909" height="274.909" rx="50" fill="white"/>
</g>
<path d="M423.8 208.162C412.302 208.162 400.917 210.415 390.295 214.792C379.672 219.17 370.021 225.586 361.891 233.675C345.471 250.011 336.247 272.167 336.247 295.269C336.17 315.383 343.17 334.89 356.034 350.408L338.523 367.829C337.308 369.054 336.485 370.61 336.158 372.299C335.831 373.989 336.014 375.738 336.685 377.324C337.412 378.891 338.591 380.208 340.072 381.108C341.552 382.007 343.269 382.449 345.002 382.376H423.8C447.021 382.376 469.29 373.199 485.71 356.863C502.129 340.527 511.354 318.371 511.354 295.269C511.354 272.167 502.129 250.011 485.71 233.675C469.29 217.339 447.021 208.162 423.8 208.162ZM423.8 364.955H366.102L374.245 356.854C375.876 355.222 376.791 353.014 376.791 350.713C376.791 348.411 375.876 346.204 374.245 344.572C362.781 333.178 355.641 318.183 354.044 302.14C352.446 286.097 356.489 269.999 365.483 256.589C374.477 243.179 387.866 233.286 403.37 228.597C418.873 223.907 435.531 224.71 450.506 230.87C465.481 237.029 477.846 248.164 485.494 262.376C493.143 276.589 495.602 293 492.452 308.814C489.302 324.628 480.739 338.866 468.221 349.103C455.703 359.34 440.004 364.942 423.8 364.955Z" fill="#117EFF"/>
<defs>
<filter id="filter0_d_15_32" x="221.091" y="119.434" width="402.909" height="402.909" filterUnits="userSpaceOnUse" color-interpolation-filters="sRGB">
<feFlood flood-opacity="0" result="BackgroundImageFix"/>
<feColorMatrix in="SourceAlpha" type="matrix" values="0 0 0 0 0 0 0 0 0 0 0 0 0 0 0 0 0 0 127 0" result="hardAlpha"/>
<feOffset dy="16"/>
<feGaussianBlur stdDeviation="32"/>
<feComposite in2="hardAlpha" operator="out"/>
<feColorMatrix type="matrix" values="0 0 0 0 0 0 0 0 0 0 0 0 0 0 0 0 0 0 0.06 0"/>
<feBlend mode="normal" in2="BackgroundImageFix" result="effect1_dropShadow_15_32"/>
<feBlend mode="normal" in="SourceGraphic" in2="effect1_dropShadow_15_32" result="shape"/>
</filter>
<clipPath id="clip0_15_32">
<rect width="184.404" height="164.04" fill="white" transform="translate(74.6665 85.98)"/>
</clipPath>
</defs>
</svg>
