<svg width="64" height="64" viewBox="0 0 64 64" fill="none" xmlns="http://www.w3.org/2000/svg">
<path d="M31.64 5C16.92 5 5 16.9467 5 31.6667C5 46.3867 16.92 58.3333 31.64 58.3333C46.3867 58.3333 58.3333 46.3867 58.3333 31.6667C58.3333 16.9467 46.3867 5 31.64 5ZM42.3333 42.3333C42.0866 42.5805 41.7936 42.7767 41.471 42.9105C41.1484 43.0443 40.8026 43.1132 40.4533 43.1132C40.1041 43.1132 39.7583 43.0443 39.4357 42.9105C39.1131 42.7767 38.82 42.5805 38.5733 42.3333L29.8 33.56C29.548 33.313 29.3476 33.0185 29.2103 32.6935C29.0729 32.3685 29.0015 32.0195 29 31.6667V21C29 19.5333 30.2 18.3333 31.6667 18.3333C33.1333 18.3333 34.3333 19.5333 34.3333 21V30.5733L42.3333 38.5733C43.3733 39.6133 43.3733 41.2933 42.3333 42.3333Z" fill="white"/>
</svg>
